<svg width="114" height="29" viewBox="0 0 114 29" fill="none" xmlns="http://www.w3.org/2000/svg">
<rect x="0.000488281" y="13.5876" width="32" height="1.56645" rx="0.783225" fill="#E3B873"/>
<rect x="82.0005" y="13.5876" width="32" height="1.56645" rx="0.783225" fill="#E3B873"/>
<path d="M73.8511 9.48069L49.7306 0.410672C49.4221 0.294959 49.0793 0.455079 48.9655 0.768468C48.9653 0.768722 48.9653 0.768976 48.965 0.769229L46.2949 8.14618C46.1814 8.45957 46.3396 8.80722 46.6484 8.92242H46.6489L49.4448 9.96435L48.8288 11.6678C48.7155 11.9812 48.8738 12.3283 49.1825 12.4435L54.7753 14.5276L54.3643 15.6632C53.9908 16.6803 54.3393 17.8252 55.2134 18.4507V21.5364H47.1974C46.8094 20.6361 46.0154 19.9824 45.0671 19.7829V18.5131C45.0671 18.1792 44.8006 17.9084 44.4713 17.9084H42.0694C41.7404 17.9084 41.4736 18.1792 41.4736 18.5131V28.1876C41.4736 28.5218 41.7404 28.7923 42.0694 28.7923H44.4713C44.8006 28.7923 45.0671 28.5218 45.0671 28.1876V26.9181C46.0154 26.7184 46.8094 26.0649 47.1974 25.1644H55.2134V25.7691C55.2134 26.7709 56.0134 27.5832 57.0005 27.5832C57.9875 27.5832 58.7878 26.7709 58.7878 25.7691V19.0707C59.3293 18.7981 59.7476 18.3254 59.9561 17.7493L60.3671 16.6138L65.4004 18.4883C65.4662 18.5129 65.5354 18.5253 65.6054 18.5253C65.8552 18.5253 66.0787 18.3672 66.1649 18.1292L66.3882 17.5118C68.3268 17.8821 70.1939 16.5871 70.5584 14.6198C70.6932 13.8928 70.6057 13.1414 70.3077 12.4664L73.9191 10.5843C74.2119 10.432 74.3276 10.0676 74.1776 9.77048C74.1096 9.63548 73.9941 9.53144 73.8541 9.47891L73.8511 9.48069ZM56.4047 19.0016L56.898 19.1831C57.1225 19.2648 57.358 19.3117 57.5962 19.3221V21.5364H56.4047V19.0016ZM43.8758 27.5832H42.6652V19.1178H43.8758V27.5832ZM46.2586 23.9552C46.2576 24.7236 45.7806 25.4085 45.0671 25.6658V21.0352C45.7806 21.2923 46.2576 21.9772 46.2586 22.7458V23.9552ZM47.4687 22.7458H57.5962V23.9552H47.4687V22.7458ZM57.0005 26.3738C56.6714 26.3738 56.4047 26.103 56.4047 25.7691V25.1644H57.5962V25.7691C57.5962 26.103 57.3295 26.3738 57.0005 26.3738ZM59.2488 16.1974L58.8378 17.3329C58.6108 17.9592 57.9265 18.2805 57.309 18.0505L56.1884 17.6339C55.5709 17.4037 55.2539 16.7089 55.4806 16.0819C55.4806 16.0819 55.4806 16.0819 55.4806 16.0817L55.8919 14.9469L58.9116 16.072L59.2488 16.1974ZM65.2521 17.1467L50.1523 11.5189L50.5636 10.3833L59.5111 13.7182C59.7229 13.7963 59.9604 13.7473 60.1251 13.591L61.797 11.9936L66.4842 13.741L65.2521 17.1467ZM69.2801 14.7834C68.9026 15.8165 67.8873 16.462 66.807 16.3557L67.7275 13.8105L69.2311 13.0246C69.4664 13.5834 69.4839 14.2122 69.2801 14.7834ZM67.2693 12.6927C67.2377 12.6955 67.2065 12.7011 67.1757 12.7095L61.8642 10.7299C61.6525 10.651 61.4149 10.7 61.2504 10.8568L59.5766 12.4545L47.6187 7.99748L49.8773 1.75558L72.1675 10.1374L67.2693 12.6927Z" fill="#E3B873"/>
<path d="M53.1292 8.40259L52.6038 9.84377M55.419 9.2552L54.8935 10.6964M57.641 10.0941L57.1155 11.5352" stroke="#E3B873" stroke-linecap="round"/>
</svg>
