<svg width="65" height="48" viewBox="0 0 65 48" fill="none" xmlns="http://www.w3.org/2000/svg">
<rect x="0.666748" width="64" height="48" rx="4" fill="#16C8BB"/>
<path d="M23.6667 25.0001H29.6667V23.0001H23.6667V13.8461C23.6668 13.7592 23.6894 13.6738 23.7325 13.5984C23.7755 13.5229 23.8375 13.46 23.9123 13.4158C23.9871 13.3716 24.0721 13.3476 24.159 13.3463C24.2459 13.3449 24.3316 13.3662 24.4077 13.4081L42.8697 23.5621C42.9481 23.6053 43.0135 23.6687 43.059 23.7457C43.1046 23.8228 43.1286 23.9106 43.1286 24.0001C43.1286 24.0896 43.1046 24.1774 43.059 24.2545C43.0135 24.3315 42.9481 24.3949 42.8697 24.4381L24.4077 34.5921C24.3316 34.634 24.2459 34.6553 24.159 34.654C24.0721 34.6526 23.9871 34.6287 23.9123 34.5844C23.8375 34.5402 23.7755 34.4773 23.7325 34.4018C23.6894 34.3264 23.6668 34.241 23.6667 34.1541V25.0001Z" fill="white"/>
</svg>
